<svg width="1200" height="630" viewBox="0 0 1200 630" fill="none" xmlns="http://www.w3.org/2000/svg" role="img" aria-labelledby="title desc">
  <title id="title">Repo_whynot</title>
  <desc id="desc">A clean product card for Repo_whynot showing a question, issue search, and a cited maintainer decision.</desc>

  <rect width="1200" height="630" fill="#111827"/>
  <rect x="70" y="58" width="1060" height="514" rx="26" fill="#F8FAFC"/>

  <text x="116" y="136" fill="#111827" font-family="Inter, ui-sans-serif, system-ui, sans-serif" font-size="58" font-weight="850">Repo_whynot</text>
  <text x="118" y="178" fill="#475569" font-family="Inter, ui-sans-serif, system-ui, sans-serif" font-size="24" font-weight="600">A small tool for finding prior maintainer decisions</text>

  <rect x="116" y="230" width="968" height="244" rx="18" fill="#FFFFFF" stroke="#CBD5E1" stroke-width="2"/>

  <rect x="154" y="268" width="286" height="150" rx="14" fill="#EEF6FF" stroke="#3B82F6" stroke-width="2"/>
  <circle cx="190" cy="306" r="16" fill="#3B82F6"/>
  <text x="184" y="314" fill="#FFFFFF" font-family="Inter, ui-sans-serif, system-ui, sans-serif" font-size="22" font-weight="850">?</text>
  <text x="220" y="312" fill="#0F172A" font-family="Inter, ui-sans-serif, system-ui, sans-serif" font-size="22" font-weight="800">Question</text>
  <text x="184" y="354" fill="#334155" font-family="Inter, ui-sans-serif, system-ui, sans-serif" font-size="19">Why was this</text>
  <text x="184" y="382" fill="#334155" font-family="Inter, ui-sans-serif, system-ui, sans-serif" font-size="19">feature declined?</text>

  <path d="M468 343H526" stroke="#64748B" stroke-width="5" stroke-linecap="round"/>
  <path d="M526 343L508 327M526 343L508 359" stroke="#64748B" stroke-width="5" stroke-linecap="round" stroke-linejoin="round"/>

  <rect x="560" y="268" width="250" height="150" rx="14" fill="#FFF7ED" stroke="#F97316" stroke-width="2"/>
  <rect x="592" y="304" width="76" height="14" rx="7" fill="#FDBA74"/>
  <rect x="592" y="332" width="150" height="12" rx="6" fill="#FED7AA"/>
  <rect x="592" y="358" width="118" height="12" rx="6" fill="#FED7AA"/>
  <text x="592" y="394" fill="#0F172A" font-family="Inter, ui-sans-serif, system-ui, sans-serif" font-size="20" font-weight="800">Issue history</text>

  <path d="M836 343H894" stroke="#64748B" stroke-width="5" stroke-linecap="round"/>
  <path d="M894 343L876 327M894 343L876 359" stroke="#64748B" stroke-width="5" stroke-linecap="round" stroke-linejoin="round"/>

  <rect x="928" y="268" width="118" height="150" rx="14" fill="#ECFDF3" stroke="#22C55E" stroke-width="2"/>
  <path d="M965 340L984 359L1017 318" stroke="#16A34A" stroke-width="9" stroke-linecap="round" stroke-linejoin="round"/>
  <text x="960" y="394" fill="#0F172A" font-family="Inter, ui-sans-serif, system-ui, sans-serif" font-size="20" font-weight="800">Cited</text>

  <rect x="116" y="502" width="968" height="40" rx="20" fill="#111827"/>
  <text x="146" y="529" fill="#F8FAFC" font-family="Inter, ui-sans-serif, system-ui, sans-serif" font-size="18" font-weight="650">read-only GitHub search · evidence IDs · accepted / rejected / deferred / duplicate</text>
</svg>
